<?xml version="1.0" encoding="utf-8"?>
<!-- Generator: Adobe Illustrator 17.1.0, SVG Export Plug-In . SVG Version: 6.00 Build 0)  -->
<!DOCTYPE svg PUBLIC "-//W3C//DTD SVG 1.1//EN" "http://www.w3.org/Graphics/SVG/1.1/DTD/svg11.dtd">
<svg version="1.1" id="bitpay_wordmark" xmlns="http://www.w3.org/2000/svg" xmlns:xlink="http://www.w3.org/1999/xlink" x="0px"
	 y="0px" viewBox="75 191 635 227" enable-background="new 75 191 635 227" xml:space="preserve">
<g>
	<path id="y_2_" fill="#FFFFFF" d="M681.3,253.2h-29.7l-17.2,72.5l0,0l-2.4,9.9c-1.7,0.5-3.3,0.9-5,1.2c-3,0.6-6.2,0.9-9.5,0.9
		c-3.8,0-6.8-0.6-9-1.7c-2.1-1.1-3.8-2.6-4.7-4.7c-0.9-2-1.2-4.4-1.1-7.1s0.8-5.7,1.5-8.7l9-37.7l5.9-25l0,0H589l-13.7,57.8
		c-1.7,6.9-2.6,13.6-2.9,19.9c-0.3,6.3,0.8,11.7,2.9,16.7c2.1,4.8,5.9,8.6,11,11.4c5.1,2.9,12.5,4.2,21.8,4.2c6.5,0,12.2-0.6,17-1.7
		c0.2,0,0.5-0.2,0.6-0.2l0,0c-1.4,6-4.1,10.8-8.3,14.6c-4.4,3.8-10.7,5.7-19.1,5.7c-3.6,0-6.9-0.2-9.9-0.6l-5.9,24.6
		c3.9,0.5,8.3,0.8,13.1,0.8c9,0,16.9-1.1,23.6-3c6.8-2.1,12.5-5.1,17.5-9.3c4.8-4.2,8.9-9.5,12.2-15.7c3.3-6.3,5.9-13.7,7.8-22.4
		l20.5-86.2l0,0L681.3,253.2z"/>
	<path id="a_2_" fill="#FFFFFF" d="M557,315.1c-1.8,7.5-2.4,15.2-1.7,22.7c0.8,7.7,3.8,19.3,6.6,25.2h-28.6
		c-3.5-5.9-3.3-8.7-4.1-10.5c-3.8,3-7.8,5.6-12.4,7.5c-4.5,2-9.5,3-15.2,3c-6.6,0-12.4-1.2-17-3.5c-4.7-2.3-8.6-5.4-11.6-9.3
		s-5.1-8.4-6.5-13.7c-1.4-5.3-2-10.8-2-16.9c0-9.2,1.7-17.8,4.8-25.9c3.3-8.1,7.8-15.2,13.6-21.2c5.7-6,19.7-19.4,42.6-19.4
		c9.9,0,23.2,0,45.9,0L557,315.1z M536.1,278.2c-13.9,0-16.4,0-22.1,2.9c-4.1,2.1-7.4,5.3-10.2,8.9s-5.3,7.8-6.9,12.7
		c-1.7,4.8-2.6,9.8-2.6,14.9c0,6.3,1.1,11.4,3.2,15.2c2.1,3.8,6,5.6,11.7,5.6c3,0,5.9-0.6,8.3-1.8c2.4-1.2,5.1-3.2,7.8-6
		c0.3-3.3,0.8-6.8,1.4-10.4c0.6-3.6,1.4-7.1,2-10.1L536.1,278.2"/>
	<path id="p_2_" fill="#FFFFFF" d="M456.6,296.7c0,9.8-1.7,18.7-4.8,26.8c-3.2,8.1-7.7,15.1-13.4,20.9c-5.7,5.9-12.5,10.4-20.5,13.7
		c-8,3.3-16.6,5-25.9,5c-4.5,0-9-0.5-13.7-1.2l-9,36.3h-29.7L374,253.4c5,0,31.5,0,39.6,0c7.5,0,14,1.2,19.3,3.5
		c5.4,2.3,9.8,5.4,13.4,9.3c3.5,3.9,6,8.6,7.7,13.9C455.8,285.1,456.6,290.7,456.6,296.7z M383.8,337.9c2.3,0.6,5.1,0.8,8.4,0.8
		c5.3,0,9.9-0.9,14.3-2.9c4.2-2,8-4.7,11-8.1c3-3.5,5.3-7.7,7.1-12.5c1.7-4.8,2.6-10.2,2.6-16.1c0-5.7-1.2-10.7-3.8-14.6
		c-2.6-4.1-6.9-6.2-13.3-6.2c-4.4,0-11.7,0-11.7,0L383.8,337.9z"/>
	<path id="t_2_" fill="#FFFFFF" d="M321.4,337.9c-3.8,0-6.8-0.6-9-1.7c-2.1-1.1-3.8-2.6-4.7-4.7c-0.9-2-1.2-4.4-1.1-7.1
		s0.8-5.7,1.5-8.7l9-37.7H351l6.2-25h-33.9l7.8-31.6l-31.6,5l-20,84.7c-1.7,6.9-2.6,13.6-2.9,19.9s0.8,11.7,2.9,16.7
		c2.1,4.8,5.9,8.6,11,11.4c5.1,2.9,12.5,4.2,21.8,4.2c6.5,0,12.2-0.6,17-1.7c0.5-0.2,1.2-0.3,1.7-0.5l6.2-25.8
		c-2.1,0.8-4.2,1.2-6.2,1.5C327.9,337.6,324.8,337.9,321.4,337.9z"/>
	<polygon id="i_bottom_6_" fill="#FFFFFF" points="246,253.2 219.8,363.2 249.4,363.2 275.5,253.2 	"/>
	<polygon id="i_top_2_" fill="#FFFFFF" points="278.7,240.6 283.2,221.4 253.5,221.4 249,240.6 	"/>
	<path id="b_2_" fill="#FFFFFF" d="M180.3,253.4c6.3,0,11.9,1.2,16.6,3.5c4.7,2.3,8.4,5.3,11.6,9.2c3,3.9,5.3,8.4,6.8,13.6
		c1.5,5.1,2.3,10.7,2.3,16.7c0,9.2-1.7,17.8-5.1,26.1c-3.5,8.1-8,15.4-13.9,21.4c-5.9,6-12.8,10.8-20.8,14.3
		c-8,3.5-16.6,5.3-25.9,5.3c-1.2,0-3.3,0-6.3-0.2c-3,0-6.5-0.3-10.2-0.9c-3.9-0.6-8-1.4-12.2-2.4c-4.4-1.1-8.4-2.6-12.2-4.4
		l34.5-144.9l30.9-4.8L164,257.1c2.7-1.2,5.1-2.1,7.8-2.7C174.4,253.7,177.3,253.4,180.3,253.4z M154.4,338.6c4.7,0,9-1.1,13.1-3.5
		c4.1-2.3,7.7-5.3,10.7-9s5.4-8.1,7.1-12.8c1.7-4.8,2.6-9.8,2.6-14.9c0-6.3-1.1-11.3-3.2-14.9c-2.1-3.6-6.5-5.3-12.2-5.3
		c-1.8,0-3.8,0.2-6.8,0.9c-3,0.6-5.6,2.1-8,4.2l-13,54.7c3.9,0.6,5.1,0.8,6.2,0.8C151.7,338.6,152.9,338.6,154.4,338.6z"/>
</g>
</svg>
