<?xml version="1.0" encoding="UTF-8" standalone="no"?>
<svg width="13px" height="15px" viewBox="0 0 13 15" version="1.1" xmlns="http://www.w3.org/2000/svg" xmlns:xlink="http://www.w3.org/1999/xlink" xmlns:sketch="http://www.bohemiancoding.com/sketch/ns">
    <!-- Generator: Sketch 3.5.2 (25235) - http://www.bohemiancoding.com/sketch -->
    <title>copy12</title>
    <desc>Created with Sketch.</desc>
    <defs></defs>
    <g id="new" stroke="none" stroke-width="1" fill="none" fill-rule="evenodd" sketch:type="MSPage">
        <g id="payment-button" sketch:type="MSArtboardGroup" transform="translate(-347.000000, -1100.000000)" fill="#282828">
            <g id="copy12" sketch:type="MSLayerGroup" transform="translate(347.000000, 1100.000000)">
                <g id="Capa_1" sketch:type="MSShapeGroup">
                    <path d="M11.9293276,2.04026665 L9.26741986,2.04026665 L9.26741986,0.713217965 C9.26741986,0.319978453 8.9577707,0 8.57729805,0 L0.690121812,0 C0.309551428,0 0,0.319978453 0,0.713217965 L0,12.2465827 C0,12.6398222 0.309551428,12.9598344 0.69015439,12.9598344 L3.35206212,12.9598344 L3.35206212,14.286782 C3.35206212,14.6800215 3.66161354,15 4.04221651,15 L11.9293602,15 C12.3098654,15 12.6195146,14.6800215 12.6195146,14.286782 L12.6195146,2.75348461 C12.619482,2.36017777 12.3098328,2.04026665 11.9293276,2.04026665 L11.9293276,2.04026665 Z M0.690121812,12.3484614 C0.635912848,12.3484614 0.59154229,12.3027069 0.59154229,12.2465827 L0.59154229,0.713217965 C0.59154229,0.657026463 0.635912848,0.611339304 0.690121812,0.611339304 L8.57729805,0.611339304 C8.63160474,0.611339304 8.67587757,0.657026463 8.67587757,0.713217965 L8.67587757,2.04026665 L8.67587757,12.2465827 C8.67587757,12.3027069 8.63160474,12.3484614 8.57729805,12.3484614 L0.690121812,12.3484614 L0.690121812,12.3484614 Z M12.0279397,14.286378 C12.0279397,14.3428725 11.9836669,14.388223 11.9293602,14.388223 L4.04218393,14.388223 C3.98797496,14.388223 3.94360441,14.3428389 3.94360441,14.286378 L3.94360441,13.0016161 L8.57729805,13.0016161 C8.95780327,13.0016161 9.26745243,12.6816039 9.26745243,12.2883644 L9.26745243,12.2461787 L9.26745243,12.072049 L10.680241,12.072049 C10.843552,12.072049 10.9760121,11.9353242 10.9760121,11.7663794 C10.9760121,11.5974345 10.843552,11.4607097 10.680241,11.4607097 L9.26745243,11.4607097 L9.26745243,9.96639957 L10.680241,9.96639957 C10.843552,9.96639957 10.9760121,9.82967477 10.9760121,9.66072992 C10.9760121,9.49178506 10.843552,9.35509393 10.680241,9.35509393 L9.26745243,9.35509393 L9.26745243,7.82674567 L10.680241,7.82674567 C10.843552,7.82674567 10.9760121,7.69002087 10.9760121,7.52107602 C10.9760121,7.35213117 10.843552,7.21540637 10.680241,7.21540637 L9.26745243,7.21540637 L9.26745243,5.74735708 L9.66121671,5.74735708 C9.82452773,5.74735708 9.95698785,5.61063228 9.95698785,5.44168743 C9.95698785,5.27270891 9.82452773,5.13601778 9.66121671,5.13601778 L9.26745243,5.13601778 L9.26745243,2.65160595 L11.9293602,2.65160595 C11.9836669,2.65160595 12.0279397,2.69725944 12.0279397,2.75348461 L12.0279397,14.286378 L12.0279397,14.286378 Z M1.36330332,3.05666285 C1.36330332,2.88768433 1.49576345,2.7509932 1.65907447,2.7509932 L6.45705645,2.7509932 C6.62036747,2.7509932 6.7528276,2.887718 6.7528276,3.05666285 C6.7528276,3.2256077 6.62036747,3.3623325 6.45705645,3.3623325 L1.65907447,3.3623325 C1.49579603,3.3623325 1.36330332,3.2256077 1.36330332,3.05666285 L1.36330332,3.05666285 Z M7.7718193,5.13605144 C7.7718193,5.3049963 7.63935917,5.4417211 7.47604815,5.4417211 L1.65907447,5.4417211 C1.49579603,5.4417211 1.36330332,5.3049963 1.36330332,5.13605144 C1.36330332,4.96707292 1.49576345,4.83038179 1.65907447,4.83038179 L7.47604815,4.83038179 C7.63935917,4.83038179 7.7718193,4.96707292 7.7718193,5.13605144 L7.7718193,5.13605144 Z M7.7718193,7.27570534 C7.7718193,7.44465019 7.63935917,7.58137499 7.47604815,7.58137499 L1.65907447,7.58137499 C1.49579603,7.58137499 1.36330332,7.44465019 1.36330332,7.27570534 C1.36330332,7.10676049 1.49576345,6.97003569 1.65907447,6.97003569 L7.47604815,6.97003569 C7.63935917,6.97003569 7.7718193,7.10676049 7.7718193,7.27570534 L7.7718193,7.27570534 Z M7.7718193,9.38135479 C7.7718193,9.55033331 7.63935917,9.68702444 7.47604815,9.68702444 L1.65907447,9.68702444 C1.49579603,9.68702444 1.36330332,9.55029964 1.36330332,9.38135479 C1.36330332,9.21240994 1.49576345,9.07571881 1.65907447,9.07571881 L7.47604815,9.07571881 C7.63935917,9.07568514 7.7718193,9.21261195 7.7718193,9.38135479 L7.7718193,9.38135479 Z" id="Shape"></path>
                </g>
            </g>
        </g>
    </g>
</svg>